# xmcd CD database file
#
# Track frame offsets:
#	150
#	16880
#	31622
#	50260
#	68370
#	86277
#	105285
#	124245
#	141145
#	159600
#	175902
#
# Disc length: 2587 seconds
#
# Revision: 1
# Processed by: cddbd v1.5.2PL0 Copyright (c) Steve Scherf et al.
# Submitted via: CDex 1.70beta3
#
DISCID=780a190b
DTITLE=ギルバート・オサリバン - あの日の僕をさがし
DYEAR=1991
DGENRE=Pop
TTITLE0=ベスト・ラヴ
TTITLE1=流れのままに
TTITLE2=サムタイムス
TTITLE3=幻のシルエット
TTITLE4=愛をささやく時
TTITLE5=アイリッシュ風にお別れしましょう
TTITLE6=出会えてよかった
TTITLE7=ケイム・アンド・ウェント
TTITLE8=過ぎ去りし日々に
TTITLE9=アイ・キャン・ギヴ・ユー
TTITLE10=ぼくときみのラヴ・ソング
EXTD=YEAR: 1991
EXTT0=
EXTT1=
EXTT2=
EXTT3=
EXTT4=
EXTT5=
EXTT6=
EXTT7=
EXTT8=
EXTT9=
EXTT10=
PLAYORDER=
